<?xml version="1.0" encoding="utf-8"?>
<!-- Generator: Adobe Illustrator 21.0.0, SVG Export Plug-In . SVG Version: 6.00 Build 0)  -->
<svg version="1.1" id="Layer_1" xmlns="http://www.w3.org/2000/svg" xmlns:xlink="http://www.w3.org/1999/xlink" x="0px" y="0px"
	 viewBox="0 0 600 100" style="enable-background:new 0 0 600 100;" xml:space="preserve">
<style type="text/css">
	.st0{fill:#EF4136;}
	.st1{fill:#FFFFFF;}
	.st2{fill:#D1D3D4;}
	.st3{fill:#39B54A;}
	.st4{fill:#FBB040;}
</style>
<g>
	<g>
		
			<ellipse transform="matrix(0.7071 -0.7071 0.7071 0.7071 8.6841 120.7544)" class="st0" cx="150.1" cy="49.9" rx="41.9" ry="41.9"/>
		<g>
			
				<rect x="129.8" y="47.3" transform="matrix(0.7071 -0.7071 0.7071 0.7071 8.8537 120.8252)" class="st1" width="40.9" height="4.8"/>
			
				<rect x="147.5" y="29.3" transform="matrix(0.7071 -0.7071 0.7071 0.7071 8.754 120.5844)" class="st1" width="4.8" height="40.9"/>
		</g>
	</g>
</g>
<g>
	<g>
		
			<ellipse transform="matrix(0.7071 -0.7071 0.7071 0.7071 37.7665 191.5029)" class="st2" cx="250" cy="50.2" rx="41.8" ry="41.8"/>
		<g>
			<rect x="247.6" y="33.7" class="st1" width="4.8" height="37.5"/>
			<g>
				<polygon class="st1" points="230.3,50 234.1,52.9 250,35.6 266.3,52.9 269.7,50 250,28.9 				"/>
			</g>
		</g>
	</g>
</g>
<g>
	<g>
		
			<ellipse transform="matrix(0.7071 -0.7071 0.7071 0.7071 67.0558 262.2136)" class="st3" cx="350" cy="50.2" rx="41.8" ry="41.8"/>
		<g>
			<rect x="347.6" y="33.7" class="st1" width="4.8" height="37.5"/>
			<g>
				<polygon class="st1" points="330.3,50 334.1,52.9 350,35.6 366.3,52.9 369.7,50 350,28.9 				"/>
			</g>
		</g>
	</g>
</g>
<g>
	<g>
		
			<ellipse transform="matrix(0.7071 -0.7071 0.7071 0.7071 96.3451 332.9243)" class="st2" cx="450" cy="50.2" rx="41.8" ry="41.8"/>
		<g>
			<rect x="447.6" y="28.9" class="st1" width="4.8" height="37.5"/>
			<g>
				<polygon class="st1" points="469.7,50 466.3,47.2 450,64.5 434.1,47.2 430.3,50 450,71.2 				"/>
			</g>
		</g>
	</g>
</g>
<g>
	<g>
		
			<ellipse transform="matrix(0.7071 -0.7071 0.7071 0.7071 125.6344 403.6349)" class="st4" cx="550" cy="50.2" rx="41.8" ry="41.8"/>
		<g>
			<rect x="547.6" y="28.9" class="st1" width="4.8" height="37.5"/>
			<g>
				<polygon class="st1" points="569.7,50 566.3,47.2 550,64.5 534.1,47.2 530.3,50 550,71.2 				"/>
			</g>
		</g>
	</g>
</g>
<g>
	<g>
		<ellipse transform="matrix(0.7071 -0.7071 0.7071 0.7071 -20.8122 50.0815)" class="st2" cx="50" cy="50.2" rx="41.8" ry="41.8"/>
		<g>
			
				<rect x="29.8" y="47.6" transform="matrix(0.7071 -0.7071 0.7071 0.7071 -20.6425 50.1521)" class="st1" width="40.9" height="4.8"/>
			
				<rect x="47.5" y="29.6" transform="matrix(0.7071 -0.7071 0.7071 0.7071 -20.7421 49.9117)" class="st1" width="4.8" height="40.9"/>
		</g>
	</g>
</g>
</svg>
